<?xml version="1.0" standalone="no"?>
<!DOCTYPE svg PUBLIC "-//W3C//DTD SVG 20010904//EN"
 "http://www.w3.org/TR/2001/REC-SVG-20010904/DTD/svg10.dtd">
<svg version="1.0" xmlns="http://www.w3.org/2000/svg"
 width="200.000000pt" height="200.000000pt" viewBox="0 0 200.000000 200.000000"
 preserveAspectRatio="xMidYMid meet">

<g transform="translate(0.000000,200.000000) scale(0.100000,-0.100000)"
fill="#000000" stroke="none">
<path d="M0 1000 l0 -1000 1000 0 1000 0 0 1000 0 1000 -1000 0 -1000 0 0
-1000z m420 259 l0 -121 50 7 c113 16 205 -37 229 -128 6 -26 11 -121 11 -216
l0 -171 -70 0 -70 0 0 168 c0 114 -4 175 -13 192 -16 31 -70 47 -109 31 l-28
-11 0 -190 0 -190 -70 0 -70 0 2 363 3 362 60 11 c33 7 63 12 68 13 4 1 7 -53
7 -120z m540 -174 l0 -296 25 -24 c13 -14 31 -25 40 -25 14 0 16 -8 10 -52 -4
-29 -10 -57 -12 -62 -8 -12 -96 0 -132 19 -64 32 -66 46 -66 395 l0 315 60 11
c33 7 63 12 68 13 4 1 7 -132 7 -294z m301 259 c24 -21 31 -57 19 -90 -14 -36
-38 -53 -76 -54 -90 -1 -118 114 -39 159 24 14 73 6 96 -15z m400 -214 c29 -6
56 -14 60 -18 4 -4 3 -31 -3 -60 -11 -53 -11 -54 -42 -47 -88 18 -131 18 -156
-3 -23 -19 -24 -22 -9 -37 9 -9 51 -25 95 -36 108 -27 137 -55 142 -141 3 -53
0 -68 -20 -97 -39 -58 -79 -75 -188 -79 -61 -2 -111 2 -140 11 -44 13 -45 14
-42 51 2 21 7 48 12 61 9 23 10 23 56 9 48 -14 140 -19 168 -8 9 3 16 15 16
25 0 22 -34 40 -124 64 -74 21 -112 58 -121 120 -22 140 107 221 296 185z
m-393 -294 c-3 -279 -4 -296 -24 -322 -35 -48 -70 -67 -128 -72 -78 -6 -128 4
-122 26 2 9 7 34 11 55 6 36 7 37 47 37 79 0 78 -2 78 295 0 144 3 265 7 268
3 4 35 7 70 7 l64 0 -3 -294z"/>
</g>
</svg>
